<mxfile host="app.diagrams.net" modified="2024-05-23T14:05:52.008Z" agent="Mozilla/5.0 (X11; Ubuntu; Linux x86_64; rv:126.0) Gecko/20100101 Firefox/126.0" etag="9Uz-ofBplTHGhCWkpzOe" version="24.4.6" type="github">
  <diagram name="Page-1" id="58cdce13-f638-feb5-8d6f-7d28b1aa9fa0">
    <mxGraphModel dx="1434" dy="872" grid="1" gridSize="10" guides="1" tooltips="1" connect="1" arrows="1" fold="1" page="1" pageScale="1" pageWidth="1100" pageHeight="850" background="none" math="0" shadow="0">
      <root>
        <mxCell id="0" />
        <mxCell id="1" parent="0" />
        <mxCell id="qaHUUoHTAE5Bpjjjf9jO-20" style="edgeStyle=none;curved=1;rounded=0;orthogonalLoop=1;jettySize=auto;html=1;exitX=0.5;exitY=0.5;exitDx=0;exitDy=0;exitPerimeter=0;entryX=0;entryY=1;entryDx=0;entryDy=0;fontSize=12;startSize=8;endSize=8;" edge="1" parent="1" source="qaHUUoHTAE5Bpjjjf9jO-2" target="qaHUUoHTAE5Bpjjjf9jO-14">
          <mxGeometry relative="1" as="geometry" />
        </mxCell>
        <mxCell id="qaHUUoHTAE5Bpjjjf9jO-2" value="&lt;div&gt;bénévole&lt;/div&gt;&lt;div&gt;&lt;br&gt;&lt;/div&gt;" style="shape=umlActor;verticalLabelPosition=bottom;verticalAlign=top;html=1;" vertex="1" parent="1">
          <mxGeometry x="280" y="660" width="80" height="140" as="geometry" />
        </mxCell>
        <mxCell id="qaHUUoHTAE5Bpjjjf9jO-9" style="edgeStyle=none;curved=1;rounded=0;orthogonalLoop=1;jettySize=auto;html=1;exitX=0.5;exitY=0.5;exitDx=0;exitDy=0;exitPerimeter=0;entryX=0;entryY=1;entryDx=0;entryDy=0;fontSize=12;startSize=8;endSize=8;" edge="1" parent="1" source="qaHUUoHTAE5Bpjjjf9jO-3" target="qaHUUoHTAE5Bpjjjf9jO-7">
          <mxGeometry relative="1" as="geometry" />
        </mxCell>
        <mxCell id="qaHUUoHTAE5Bpjjjf9jO-15" style="edgeStyle=none;curved=1;rounded=0;orthogonalLoop=1;jettySize=auto;html=1;exitX=0.5;exitY=0.5;exitDx=0;exitDy=0;exitPerimeter=0;fontSize=12;startSize=8;endSize=8;entryX=0;entryY=0;entryDx=0;entryDy=0;" edge="1" parent="1" source="qaHUUoHTAE5Bpjjjf9jO-3" target="qaHUUoHTAE5Bpjjjf9jO-14">
          <mxGeometry relative="1" as="geometry" />
        </mxCell>
        <mxCell id="qaHUUoHTAE5Bpjjjf9jO-17" style="edgeStyle=none;curved=1;rounded=0;orthogonalLoop=1;jettySize=auto;html=1;exitX=0.5;exitY=0.5;exitDx=0;exitDy=0;exitPerimeter=0;entryX=0;entryY=0.5;entryDx=0;entryDy=0;fontSize=12;startSize=8;endSize=8;" edge="1" parent="1" source="qaHUUoHTAE5Bpjjjf9jO-3" target="qaHUUoHTAE5Bpjjjf9jO-16">
          <mxGeometry relative="1" as="geometry" />
        </mxCell>
        <mxCell id="qaHUUoHTAE5Bpjjjf9jO-19" style="edgeStyle=none;curved=1;rounded=0;orthogonalLoop=1;jettySize=auto;html=1;exitX=0.5;exitY=0.5;exitDx=0;exitDy=0;exitPerimeter=0;entryX=0;entryY=0.5;entryDx=0;entryDy=0;fontSize=12;startSize=8;endSize=8;" edge="1" parent="1" source="qaHUUoHTAE5Bpjjjf9jO-3" target="qaHUUoHTAE5Bpjjjf9jO-18">
          <mxGeometry relative="1" as="geometry" />
        </mxCell>
        <mxCell id="qaHUUoHTAE5Bpjjjf9jO-3" value="employé" style="shape=umlActor;verticalLabelPosition=bottom;verticalAlign=top;html=1;" vertex="1" parent="1">
          <mxGeometry x="280" y="380" width="80" height="140" as="geometry" />
        </mxCell>
        <mxCell id="qaHUUoHTAE5Bpjjjf9jO-11" style="edgeStyle=none;curved=1;rounded=0;orthogonalLoop=1;jettySize=auto;html=1;exitX=0.5;exitY=0.5;exitDx=0;exitDy=0;exitPerimeter=0;fontSize=12;startSize=8;endSize=8;" edge="1" parent="1" source="qaHUUoHTAE5Bpjjjf9jO-5" target="qaHUUoHTAE5Bpjjjf9jO-10">
          <mxGeometry relative="1" as="geometry" />
        </mxCell>
        <mxCell id="qaHUUoHTAE5Bpjjjf9jO-13" style="edgeStyle=none;curved=1;rounded=0;orthogonalLoop=1;jettySize=auto;html=1;exitX=0.5;exitY=0.5;exitDx=0;exitDy=0;exitPerimeter=0;entryX=0;entryY=0.5;entryDx=0;entryDy=0;fontSize=12;startSize=8;endSize=8;" edge="1" parent="1" source="qaHUUoHTAE5Bpjjjf9jO-5" target="qaHUUoHTAE5Bpjjjf9jO-12">
          <mxGeometry relative="1" as="geometry" />
        </mxCell>
        <mxCell id="qaHUUoHTAE5Bpjjjf9jO-22" style="edgeStyle=none;curved=1;rounded=0;orthogonalLoop=1;jettySize=auto;html=1;exitX=0.5;exitY=0.5;exitDx=0;exitDy=0;exitPerimeter=0;entryX=0;entryY=0;entryDx=0;entryDy=0;fontSize=12;startSize=8;endSize=8;" edge="1" parent="1" source="qaHUUoHTAE5Bpjjjf9jO-5" target="qaHUUoHTAE5Bpjjjf9jO-21">
          <mxGeometry relative="1" as="geometry" />
        </mxCell>
        <mxCell id="qaHUUoHTAE5Bpjjjf9jO-26" style="edgeStyle=none;curved=1;rounded=0;orthogonalLoop=1;jettySize=auto;html=1;exitX=0.5;exitY=0.5;exitDx=0;exitDy=0;exitPerimeter=0;entryX=0;entryY=0.5;entryDx=0;entryDy=0;fontSize=12;startSize=8;endSize=8;" edge="1" parent="1" source="qaHUUoHTAE5Bpjjjf9jO-5" target="qaHUUoHTAE5Bpjjjf9jO-25">
          <mxGeometry relative="1" as="geometry" />
        </mxCell>
        <mxCell id="qaHUUoHTAE5Bpjjjf9jO-5" value="abonné" style="shape=umlActor;verticalLabelPosition=bottom;verticalAlign=top;html=1;" vertex="1" parent="1">
          <mxGeometry x="280" y="60" width="80" height="140" as="geometry" />
        </mxCell>
        <mxCell id="qaHUUoHTAE5Bpjjjf9jO-7" value="&lt;div&gt;consulter&lt;/div&gt;" style="html=1;whiteSpace=wrap;" vertex="1" parent="1">
          <mxGeometry x="610" y="290" width="110" height="50" as="geometry" />
        </mxCell>
        <mxCell id="qaHUUoHTAE5Bpjjjf9jO-8" value="" style="edgeStyle=none;orthogonalLoop=1;jettySize=auto;html=1;rounded=0;fontSize=12;startSize=8;endSize=8;curved=1;exitX=0.5;exitY=0.5;exitDx=0;exitDy=0;exitPerimeter=0;entryX=0;entryY=0;entryDx=0;entryDy=0;" edge="1" parent="1" source="qaHUUoHTAE5Bpjjjf9jO-5" target="qaHUUoHTAE5Bpjjjf9jO-7">
          <mxGeometry width="140" relative="1" as="geometry">
            <mxPoint x="270" y="160" as="sourcePoint" />
            <mxPoint x="410" y="160" as="targetPoint" />
            <Array as="points" />
          </mxGeometry>
        </mxCell>
        <mxCell id="qaHUUoHTAE5Bpjjjf9jO-10" value="emprunter" style="html=1;whiteSpace=wrap;" vertex="1" parent="1">
          <mxGeometry x="610" y="105" width="110" height="50" as="geometry" />
        </mxCell>
        <mxCell id="qaHUUoHTAE5Bpjjjf9jO-12" value="retourner" style="html=1;whiteSpace=wrap;" vertex="1" parent="1">
          <mxGeometry x="610" y="190" width="110" height="50" as="geometry" />
        </mxCell>
        <mxCell id="qaHUUoHTAE5Bpjjjf9jO-14" value="prêt" style="html=1;whiteSpace=wrap;" vertex="1" parent="1">
          <mxGeometry x="610" y="560" width="110" height="50" as="geometry" />
        </mxCell>
        <mxCell id="qaHUUoHTAE5Bpjjjf9jO-16" value="&lt;div&gt;relance&lt;/div&gt;" style="html=1;whiteSpace=wrap;" vertex="1" parent="1">
          <mxGeometry x="610" y="490" width="110" height="50" as="geometry" />
        </mxCell>
        <mxCell id="qaHUUoHTAE5Bpjjjf9jO-18" value="&lt;div&gt;inscription&lt;/div&gt;" style="html=1;whiteSpace=wrap;" vertex="1" parent="1">
          <mxGeometry x="610" y="425" width="110" height="50" as="geometry" />
        </mxCell>
        <mxCell id="qaHUUoHTAE5Bpjjjf9jO-21" value="modifier" style="html=1;whiteSpace=wrap;" vertex="1" parent="1">
          <mxGeometry x="610" y="360" width="110" height="50" as="geometry" />
        </mxCell>
        <mxCell id="qaHUUoHTAE5Bpjjjf9jO-23" style="edgeStyle=none;curved=1;rounded=0;orthogonalLoop=1;jettySize=auto;html=1;exitX=0.5;exitY=0.5;exitDx=0;exitDy=0;exitPerimeter=0;fontSize=12;startSize=8;endSize=8;" edge="1" parent="1" source="qaHUUoHTAE5Bpjjjf9jO-3">
          <mxGeometry relative="1" as="geometry">
            <mxPoint x="610" y="410" as="targetPoint" />
          </mxGeometry>
        </mxCell>
        <mxCell id="qaHUUoHTAE5Bpjjjf9jO-25" value="rechercher" style="html=1;whiteSpace=wrap;" vertex="1" parent="1">
          <mxGeometry x="610" y="20" width="110" height="50" as="geometry" />
        </mxCell>
      </root>
    </mxGraphModel>
  </diagram>
</mxfile>
